<?xml version="1.0" encoding="UTF-8"?>

<svg version="1.2" baseProfile="tiny" width="127mm" height="127mm" viewBox="0 0 12700 12700" preserveAspectRatio="xMidYMid" fill-rule="evenodd" stroke-width="28.222" stroke-linejoin="round" xmlns="http://www.w3.org/2000/svg" xmlns:ooo="http://xml.openoffice.org/svg/export" xmlns:xlink="http://www.w3.org/1999/xlink" xmlns:presentation="http://sun.com/xmlns/staroffice/presentation" xmlns:smil="http://www.w3.org/2001/SMIL20/" xmlns:anim="urn:oasis:names:tc:opendocument:xmlns:animation:1.0" xml:space="preserve">
 <defs class="ClipPathGroup">
  <clipPath id="presentation_clip_path" clipPathUnits="userSpaceOnUse">
   <rect x="0" y="0" width="12700" height="12700"/>
  </clipPath>
 </defs>
 <defs class="TextShapeIndex">
  <g ooo:slide="id1" ooo:id-list="id3 id4 id5 id6 id7 id8"/>
 </defs>
 <defs class="EmbeddedBulletChars">
  <g id="bullet-char-template(57356)" transform="scale(0.00048828125,-0.00048828125)">
   <path d="M 580,1141 L 1163,571 580,0 -4,571 580,1141 Z"/>
  </g>
  <g id="bullet-char-template(57354)" transform="scale(0.00048828125,-0.00048828125)">
   <path d="M 8,1128 L 1137,1128 1137,0 8,0 8,1128 Z"/>
  </g>
  <g id="bullet-char-template(10146)" transform="scale(0.00048828125,-0.00048828125)">
   <path d="M 174,0 L 602,739 174,1481 1456,739 174,0 Z M 1358,739 L 309,1346 659,739 1358,739 Z"/>
  </g>
  <g id="bullet-char-template(10132)" transform="scale(0.00048828125,-0.00048828125)">
   <path d="M 2015,739 L 1276,0 717,0 1260,543 174,543 174,936 1260,936 717,1481 1274,1481 2015,739 Z"/>
  </g>
  <g id="bullet-char-template(10007)" transform="scale(0.00048828125,-0.00048828125)">
   <path d="M 0,-2 C -7,14 -16,27 -25,37 L 356,567 C 262,823 215,952 215,954 215,979 228,992 255,992 264,992 276,990 289,987 310,991 331,999 354,1012 L 381,999 492,748 772,1049 836,1024 860,1049 C 881,1039 901,1025 922,1006 886,937 835,863 770,784 769,783 710,716 594,584 L 774,223 C 774,196 753,168 711,139 L 727,119 C 717,90 699,76 672,76 641,76 570,178 457,381 L 164,-76 C 142,-110 111,-127 72,-127 30,-127 9,-110 8,-76 1,-67 -2,-52 -2,-32 -2,-23 -1,-13 0,-2 Z"/>
  </g>
  <g id="bullet-char-template(10004)" transform="scale(0.00048828125,-0.00048828125)">
   <path d="M 285,-33 C 182,-33 111,30 74,156 52,228 41,333 41,471 41,549 55,616 82,672 116,743 169,778 240,778 293,778 328,747 346,684 L 369,508 C 377,444 397,411 428,410 L 1163,1116 C 1174,1127 1196,1133 1229,1133 1271,1133 1292,1118 1292,1087 L 1292,965 C 1292,929 1282,901 1262,881 L 442,47 C 390,-6 338,-33 285,-33 Z"/>
  </g>
  <g id="bullet-char-template(9679)" transform="scale(0.00048828125,-0.00048828125)">
   <path d="M 813,0 C 632,0 489,54 383,161 276,268 223,411 223,592 223,773 276,916 383,1023 489,1130 632,1184 813,1184 992,1184 1136,1130 1245,1023 1353,916 1407,772 1407,592 1407,412 1353,268 1245,161 1136,54 992,0 813,0 Z"/>
  </g>
  <g id="bullet-char-template(8226)" transform="scale(0.00048828125,-0.00048828125)">
   <path d="M 346,457 C 273,457 209,483 155,535 101,586 74,649 74,723 74,796 101,859 155,911 209,963 273,989 346,989 419,989 480,963 531,910 582,859 608,796 608,723 608,648 583,586 532,535 482,483 420,457 346,457 Z"/>
  </g>
  <g id="bullet-char-template(8211)" transform="scale(0.00048828125,-0.00048828125)">
   <path d="M -4,459 L 1135,459 1135,606 -4,606 -4,459 Z"/>
  </g>
 </defs>
 <defs class="TextEmbeddedBitmaps"/>
 <g>
  <g id="id2" class="Master_Slide">
   <g id="bg-id2" class="Background"/>
   <g id="bo-id2" class="BackgroundObjects"/>
  </g>
 </g>
 <g class="SlideGroup">
  <g>
   <g id="id1" class="Slide" clip-path="url(#presentation_clip_path)">
    <g class="Page">
     <g class="com.sun.star.drawing.ClosedBezierShape">
      <g id="id3">
       <rect class="BoundingBox" stroke="none" fill="none" x="10844" y="3817" width="1347" height="819"/>
       <path fill="rgb(128,128,128)" stroke="none" d="M 10964,4516 C 11038,4589 11140,4635 11253,4635 L 11781,4634 C 12007,4635 12190,4452 12190,4226 12190,4001 12007,3818 11781,3818 L 11253,3818 C 11027,3818 10845,4001 10845,4226 10844,4339 10890,4442 10964,4516 Z"/>
      </g>
     </g>
     <g class="com.sun.star.drawing.ClosedBezierShape">
      <g id="id4">
       <rect class="BoundingBox" stroke="none" fill="none" x="10800" y="9738" width="1193" height="1192"/>
       <path fill="rgb(128,128,128)" stroke="none" d="M 10801,10147 C 10801,10251 10841,10356 10921,10436 L 11295,10809 C 11454,10969 11712,10969 11872,10809 12031,10650 12031,10391 11872,10232 L 11498,9858 C 11339,9698 11080,9698 10921,9858 10841,9938 10801,10042 10801,10147 Z"/>
      </g>
     </g>
     <g class="com.sun.star.drawing.ClosedBezierShape">
      <g id="id5">
       <rect class="BoundingBox" stroke="none" fill="none" x="1300" y="3210" width="819" height="1347"/>
       <path fill="rgb(128,128,128)" stroke="none" d="M 1998,4436 C 2071,4362 2117,4260 2117,4147 L 2117,3618 C 2117,3393 1934,3211 1708,3210 1483,3210 1300,3393 1300,3618 L 1300,4147 C 1300,4372 1483,4556 1708,4555 1821,4556 1924,4510 1998,4436 Z"/>
      </g>
     </g>
     <g class="com.sun.star.drawing.ClosedBezierShape">
      <g id="id6">
       <rect class="BoundingBox" stroke="none" fill="none" x="493" y="9080" width="1192" height="1193"/>
       <path fill="rgb(128,128,128)" stroke="none" d="M 1684,9863 C 1684,9758 1644,9654 1564,9574 L 1190,9200 C 1030,9040 772,9040 612,9200 453,9360 453,9619 612,9778 L 986,10152 C 1146,10311 1405,10311 1564,10152 1644,10072 1684,9967 1684,9863 Z"/>
      </g>
     </g>
     <g class="com.sun.star.drawing.ClosedBezierShape">
      <g id="id7">
       <rect class="BoundingBox" stroke="none" fill="none" x="9003" y="245" width="1192" height="1193"/>
       <path fill="rgb(128,128,128)" stroke="none" d="M 9412,1437 C 9516,1437 9621,1397 9701,1317 L 10074,943 C 10234,783 10234,525 10074,365 9915,206 9656,206 9497,365 L 9123,739 C 8963,899 8963,1158 9123,1317 9203,1397 9308,1437 9412,1437 Z"/>
      </g>
     </g>
     <g class="com.sun.star.drawing.ClosedBezierShape">
      <g id="id8">
       <rect class="BoundingBox" stroke="none" fill="none" x="1470" y="1787" width="10089" height="10406"/>
       <path fill="rgb(128,128,128)" stroke="none" d="M 2340,5982 C 4330,5795 6370,5743 8388,5828 L 8327,5766 C 8246,5686 8206,5581 8206,5477 8206,5373 8246,5268 8327,5189 8486,5029 8744,5029 8904,5189 L 9277,5562 C 9365,5649 9402,5766 9394,5880 9827,5908 10259,5941 10688,5982 11024,6014 11224,5783 11221,5462 11214,5087 10945,4822 10642,4766 7984,4283 5044,4283 2385,4766 2083,4822 1814,5087 1807,5462 1804,5783 2003,6014 2340,5982 Z M 8899,11185 C 7361,11376 5667,11377 4129,11185 3881,11154 3726,11343 3780,11576 4309,12280 5798,12188 6514,12188 7230,12188 8718,12280 9248,11576 9302,11344 9147,11154 8899,11185 Z M 3183,4293 C 5377,4004 7650,4004 9845,4293 10164,4338 10362,4123 10319,3822 10255,3474 9975,3245 9684,3197 7605,2885 5423,2885 3343,3197 3053,3245 2773,3474 2709,3822 2666,4123 2864,4338 3183,4293 Z M 4129,2794 C 5667,2603 7361,2603 8899,2794 9146,2826 9302,2636 9248,2404 8725,1694 7224,1791 6514,1792 5802,1792 4303,1694 3780,2404 3726,2636 3881,2826 4129,2794 Z M 9845,9687 C 8505,9864 7136,9932 5774,9893 5757,9922 5737,9949 5712,9974 L 5339,10348 C 5259,10428 5154,10468 5050,10468 4946,10468 4841,10428 4762,10348 4623,10210 4606,9997 4706,9840 4196,9804 3687,9753 3183,9687 2864,9642 2666,9857 2709,10158 2773,10506 3053,10734 3343,10783 5423,11095 7605,11096 9684,10783 9975,10734 10255,10506 10319,10158 10362,9856 10164,9642 9845,9687 Z M 11090,6390 C 8072,6146 4956,6146 1937,6390 1619,6416 1470,6687 1470,6990 1470,7292 1619,7563 1937,7589 4956,7832 8071,7833 11090,7589 11409,7563 11557,7292 11557,6990 11557,6687 11409,6417 11090,6390 Z M 10688,7998 C 7937,8258 5091,8257 2340,7998 2003,7966 1804,8197 1807,8518 1813,8892 2083,9158 2385,9214 3235,9368 4114,9472 5004,9528 L 5135,9397 C 5295,9238 5553,9238 5712,9397 5761,9446 5792,9503 5811,9564 7443,9611 9091,9496 10642,9214 10945,9158 11214,8892 11221,8518 11224,8197 11024,7966 10688,7998 Z"/>
      </g>
     </g>
    </g>
   </g>
  </g>
 </g>
</svg>